<mxfile host="Electron" modified="2024-01-04T10:33:35.272Z" agent="Mozilla/5.0 (Windows NT 10.0; Win64; x64) AppleWebKit/537.36 (KHTML, like Gecko) draw.io/22.1.16 Chrome/120.0.6099.109 Electron/28.1.0 Safari/537.36" etag="zERCPIAkypL-yIPyehzR" version="22.1.16" type="device">
  <diagram name="Page-1" id="3FU2BRUodX3esNhyQgwJ">
    <mxGraphModel dx="558" dy="383" grid="1" gridSize="10" guides="1" tooltips="1" connect="1" arrows="1" fold="1" page="1" pageScale="1" pageWidth="850" pageHeight="1100" math="0" shadow="0">
      <root>
        <mxCell id="0" />
        <mxCell id="1" parent="0" />
        <mxCell id="Rr48j6R8bM0mg8fOzwoo-1" value="内存 Memory" style="swimlane;whiteSpace=wrap;html=1;startSize=30;fillColor=#ffe6cc;strokeColor=#d79b00;" parent="1" vertex="1">
          <mxGeometry x="240" y="150" width="320" height="270" as="geometry" />
        </mxCell>
        <mxCell id="Oefb0ky4CalMtcR2rLV9-1" value="data&lt;br&gt;&lt;br&gt;ptr" style="rounded=0;whiteSpace=wrap;html=1;fillColor=#fad9d5;strokeColor=#ae4132;fontFamily=consolas;" vertex="1" parent="Rr48j6R8bM0mg8fOzwoo-1">
          <mxGeometry y="30" width="40" height="60" as="geometry" />
        </mxCell>
        <mxCell id="Oefb0ky4CalMtcR2rLV9-2" value="" style="rounded=0;whiteSpace=wrap;html=1;fontFamily=consolas;fillColor=#b1ddf0;strokeColor=#10739e;" vertex="1" parent="Rr48j6R8bM0mg8fOzwoo-1">
          <mxGeometry x="40" y="30" width="40" height="60" as="geometry" />
        </mxCell>
        <mxCell id="Oefb0ky4CalMtcR2rLV9-3" value="" style="rounded=0;whiteSpace=wrap;html=1;fontFamily=consolas;fillColor=#b1ddf0;strokeColor=#10739e;" vertex="1" parent="Rr48j6R8bM0mg8fOzwoo-1">
          <mxGeometry x="80" y="30" width="40" height="60" as="geometry" />
        </mxCell>
        <mxCell id="Oefb0ky4CalMtcR2rLV9-4" value="" style="rounded=0;whiteSpace=wrap;html=1;fontFamily=consolas;fillColor=#b1ddf0;strokeColor=#10739e;" vertex="1" parent="Rr48j6R8bM0mg8fOzwoo-1">
          <mxGeometry x="120" y="30" width="40" height="60" as="geometry" />
        </mxCell>
        <mxCell id="Oefb0ky4CalMtcR2rLV9-5" value="" style="rounded=0;whiteSpace=wrap;html=1;fontFamily=consolas;fillColor=#b1ddf0;strokeColor=#10739e;" vertex="1" parent="Rr48j6R8bM0mg8fOzwoo-1">
          <mxGeometry x="160" y="30" width="40" height="60" as="geometry" />
        </mxCell>
        <mxCell id="Oefb0ky4CalMtcR2rLV9-6" value="" style="rounded=0;whiteSpace=wrap;html=1;fontFamily=consolas;fillColor=#b1ddf0;strokeColor=#10739e;" vertex="1" parent="Rr48j6R8bM0mg8fOzwoo-1">
          <mxGeometry x="200" y="30" width="40" height="60" as="geometry" />
        </mxCell>
        <mxCell id="Oefb0ky4CalMtcR2rLV9-7" value="data&lt;br&gt;&lt;br&gt;ptr" style="rounded=0;whiteSpace=wrap;html=1;fontFamily=consolas;fillColor=#fad9d5;strokeColor=#ae4132;" vertex="1" parent="Rr48j6R8bM0mg8fOzwoo-1">
          <mxGeometry x="240" y="30" width="40" height="60" as="geometry" />
        </mxCell>
        <mxCell id="Oefb0ky4CalMtcR2rLV9-8" value="" style="rounded=0;whiteSpace=wrap;html=1;fontFamily=consolas;fillColor=#b1ddf0;strokeColor=#10739e;" vertex="1" parent="Rr48j6R8bM0mg8fOzwoo-1">
          <mxGeometry x="280" y="30" width="40" height="60" as="geometry" />
        </mxCell>
        <mxCell id="Oefb0ky4CalMtcR2rLV9-9" value="" style="rounded=0;whiteSpace=wrap;html=1;fontFamily=consolas;fillColor=#b1ddf0;strokeColor=#10739e;" vertex="1" parent="Rr48j6R8bM0mg8fOzwoo-1">
          <mxGeometry y="90" width="40" height="60" as="geometry" />
        </mxCell>
        <mxCell id="Oefb0ky4CalMtcR2rLV9-10" value="" style="rounded=0;whiteSpace=wrap;html=1;fontFamily=consolas;fillColor=#b1ddf0;strokeColor=#10739e;" vertex="1" parent="Rr48j6R8bM0mg8fOzwoo-1">
          <mxGeometry x="40" y="90" width="40" height="60" as="geometry" />
        </mxCell>
        <mxCell id="Oefb0ky4CalMtcR2rLV9-11" value="" style="rounded=0;whiteSpace=wrap;html=1;fontFamily=consolas;fillColor=#b1ddf0;strokeColor=#10739e;" vertex="1" parent="Rr48j6R8bM0mg8fOzwoo-1">
          <mxGeometry x="80" y="90" width="40" height="60" as="geometry" />
        </mxCell>
        <mxCell id="Oefb0ky4CalMtcR2rLV9-12" value="data&lt;br&gt;&lt;br&gt;ptr" style="rounded=0;whiteSpace=wrap;html=1;fontFamily=consolas;fillColor=#fad9d5;strokeColor=#ae4132;" vertex="1" parent="Rr48j6R8bM0mg8fOzwoo-1">
          <mxGeometry x="120" y="90" width="40" height="60" as="geometry" />
        </mxCell>
        <mxCell id="Oefb0ky4CalMtcR2rLV9-13" value="" style="rounded=0;whiteSpace=wrap;html=1;fontFamily=consolas;fillColor=#b1ddf0;strokeColor=#10739e;" vertex="1" parent="Rr48j6R8bM0mg8fOzwoo-1">
          <mxGeometry x="160" y="90" width="40" height="60" as="geometry" />
        </mxCell>
        <mxCell id="Oefb0ky4CalMtcR2rLV9-14" value="" style="rounded=0;whiteSpace=wrap;html=1;fontFamily=consolas;fillColor=#b1ddf0;strokeColor=#10739e;" vertex="1" parent="Rr48j6R8bM0mg8fOzwoo-1">
          <mxGeometry x="200" y="90" width="40" height="60" as="geometry" />
        </mxCell>
        <mxCell id="Oefb0ky4CalMtcR2rLV9-15" value="" style="rounded=0;whiteSpace=wrap;html=1;fontFamily=consolas;fillColor=#b1ddf0;strokeColor=#10739e;" vertex="1" parent="Rr48j6R8bM0mg8fOzwoo-1">
          <mxGeometry x="240" y="90" width="40" height="60" as="geometry" />
        </mxCell>
        <mxCell id="Oefb0ky4CalMtcR2rLV9-16" value="" style="rounded=0;whiteSpace=wrap;html=1;fontFamily=consolas;fillColor=#b1ddf0;strokeColor=#10739e;" vertex="1" parent="Rr48j6R8bM0mg8fOzwoo-1">
          <mxGeometry x="280" y="90" width="40" height="60" as="geometry" />
        </mxCell>
        <mxCell id="Oefb0ky4CalMtcR2rLV9-17" value="" style="rounded=0;whiteSpace=wrap;html=1;fontFamily=consolas;fillColor=#b1ddf0;strokeColor=#10739e;" vertex="1" parent="Rr48j6R8bM0mg8fOzwoo-1">
          <mxGeometry y="150" width="40" height="60" as="geometry" />
        </mxCell>
        <mxCell id="Oefb0ky4CalMtcR2rLV9-18" value="" style="rounded=0;whiteSpace=wrap;html=1;fontFamily=consolas;fillColor=#b1ddf0;strokeColor=#10739e;" vertex="1" parent="Rr48j6R8bM0mg8fOzwoo-1">
          <mxGeometry x="40" y="150" width="40" height="60" as="geometry" />
        </mxCell>
        <mxCell id="Oefb0ky4CalMtcR2rLV9-19" value="" style="rounded=0;whiteSpace=wrap;html=1;fontFamily=consolas;fillColor=#b1ddf0;strokeColor=#10739e;" vertex="1" parent="Rr48j6R8bM0mg8fOzwoo-1">
          <mxGeometry x="80" y="150" width="40" height="60" as="geometry" />
        </mxCell>
        <mxCell id="Oefb0ky4CalMtcR2rLV9-20" value="" style="rounded=0;whiteSpace=wrap;html=1;fontFamily=consolas;fillColor=#b1ddf0;strokeColor=#10739e;" vertex="1" parent="Rr48j6R8bM0mg8fOzwoo-1">
          <mxGeometry x="120" y="150" width="40" height="60" as="geometry" />
        </mxCell>
        <mxCell id="Oefb0ky4CalMtcR2rLV9-21" value="" style="rounded=0;whiteSpace=wrap;html=1;fontFamily=consolas;fillColor=#b1ddf0;strokeColor=#10739e;" vertex="1" parent="Rr48j6R8bM0mg8fOzwoo-1">
          <mxGeometry x="160" y="150" width="40" height="60" as="geometry" />
        </mxCell>
        <mxCell id="Oefb0ky4CalMtcR2rLV9-22" value="data&lt;br&gt;&lt;br&gt;ptr" style="rounded=0;whiteSpace=wrap;html=1;fontFamily=consolas;fillColor=#fad9d5;strokeColor=#ae4132;" vertex="1" parent="Rr48j6R8bM0mg8fOzwoo-1">
          <mxGeometry x="200" y="150" width="40" height="60" as="geometry" />
        </mxCell>
        <mxCell id="Oefb0ky4CalMtcR2rLV9-23" value="" style="rounded=0;whiteSpace=wrap;html=1;fontFamily=consolas;fillColor=#b1ddf0;strokeColor=#10739e;" vertex="1" parent="Rr48j6R8bM0mg8fOzwoo-1">
          <mxGeometry x="240" y="150" width="40" height="60" as="geometry" />
        </mxCell>
        <mxCell id="Oefb0ky4CalMtcR2rLV9-24" value="" style="rounded=0;whiteSpace=wrap;html=1;fontFamily=consolas;fillColor=#b1ddf0;strokeColor=#10739e;" vertex="1" parent="Rr48j6R8bM0mg8fOzwoo-1">
          <mxGeometry x="280" y="150" width="40" height="60" as="geometry" />
        </mxCell>
        <mxCell id="Oefb0ky4CalMtcR2rLV9-25" value="" style="rounded=0;whiteSpace=wrap;html=1;fontFamily=consolas;fillColor=#b1ddf0;strokeColor=#10739e;" vertex="1" parent="Rr48j6R8bM0mg8fOzwoo-1">
          <mxGeometry y="210" width="40" height="60" as="geometry" />
        </mxCell>
        <mxCell id="Oefb0ky4CalMtcR2rLV9-26" value="data&lt;br&gt;&lt;br&gt;ptr" style="rounded=0;whiteSpace=wrap;html=1;fontFamily=consolas;fillColor=#fad9d5;strokeColor=#ae4132;" vertex="1" parent="Rr48j6R8bM0mg8fOzwoo-1">
          <mxGeometry x="40" y="210" width="40" height="60" as="geometry" />
        </mxCell>
        <mxCell id="Oefb0ky4CalMtcR2rLV9-27" value="" style="rounded=0;whiteSpace=wrap;html=1;fontFamily=consolas;fillColor=#b1ddf0;strokeColor=#10739e;" vertex="1" parent="Rr48j6R8bM0mg8fOzwoo-1">
          <mxGeometry x="80" y="210" width="40" height="60" as="geometry" />
        </mxCell>
        <mxCell id="Oefb0ky4CalMtcR2rLV9-28" value="" style="rounded=0;whiteSpace=wrap;html=1;fontFamily=consolas;fillColor=#b1ddf0;strokeColor=#10739e;" vertex="1" parent="Rr48j6R8bM0mg8fOzwoo-1">
          <mxGeometry x="120" y="210" width="40" height="60" as="geometry" />
        </mxCell>
        <mxCell id="Oefb0ky4CalMtcR2rLV9-29" value="" style="rounded=0;whiteSpace=wrap;html=1;fontFamily=consolas;fillColor=#b1ddf0;strokeColor=#10739e;" vertex="1" parent="Rr48j6R8bM0mg8fOzwoo-1">
          <mxGeometry x="160" y="210" width="40" height="60" as="geometry" />
        </mxCell>
        <mxCell id="Oefb0ky4CalMtcR2rLV9-30" value="" style="rounded=0;whiteSpace=wrap;html=1;fontFamily=consolas;fillColor=#b1ddf0;strokeColor=#10739e;" vertex="1" parent="Rr48j6R8bM0mg8fOzwoo-1">
          <mxGeometry x="200" y="210" width="40" height="60" as="geometry" />
        </mxCell>
        <mxCell id="Oefb0ky4CalMtcR2rLV9-31" value="" style="rounded=0;whiteSpace=wrap;html=1;fontFamily=consolas;fillColor=#b1ddf0;strokeColor=#10739e;" vertex="1" parent="Rr48j6R8bM0mg8fOzwoo-1">
          <mxGeometry x="240" y="210" width="40" height="60" as="geometry" />
        </mxCell>
        <mxCell id="Oefb0ky4CalMtcR2rLV9-32" value="" style="rounded=0;whiteSpace=wrap;html=1;fontFamily=consolas;fillColor=#b1ddf0;strokeColor=#10739e;" vertex="1" parent="Rr48j6R8bM0mg8fOzwoo-1">
          <mxGeometry x="280" y="210" width="40" height="60" as="geometry" />
        </mxCell>
        <mxCell id="Oefb0ky4CalMtcR2rLV9-42" style="edgeStyle=orthogonalEdgeStyle;rounded=0;orthogonalLoop=1;jettySize=auto;html=1;exitX=0.5;exitY=0.833;exitDx=0;exitDy=0;exitPerimeter=0;" edge="1" parent="Rr48j6R8bM0mg8fOzwoo-1" source="Oefb0ky4CalMtcR2rLV9-1" target="Oefb0ky4CalMtcR2rLV9-22">
          <mxGeometry relative="1" as="geometry">
            <Array as="points">
              <mxPoint x="20" y="180" />
            </Array>
          </mxGeometry>
        </mxCell>
        <mxCell id="Oefb0ky4CalMtcR2rLV9-43" style="edgeStyle=orthogonalEdgeStyle;rounded=0;orthogonalLoop=1;jettySize=auto;html=1;exitX=0.25;exitY=0.75;exitDx=0;exitDy=0;exitPerimeter=0;" edge="1" parent="Rr48j6R8bM0mg8fOzwoo-1" source="Oefb0ky4CalMtcR2rLV9-22" target="Oefb0ky4CalMtcR2rLV9-26">
          <mxGeometry relative="1" as="geometry">
            <Array as="points">
              <mxPoint x="140" y="195" />
              <mxPoint x="140" y="240" />
            </Array>
          </mxGeometry>
        </mxCell>
        <mxCell id="Oefb0ky4CalMtcR2rLV9-44" style="edgeStyle=orthogonalEdgeStyle;rounded=0;orthogonalLoop=1;jettySize=auto;html=1;exitX=0.75;exitY=0.75;exitDx=0;exitDy=0;exitPerimeter=0;" edge="1" parent="Rr48j6R8bM0mg8fOzwoo-1" source="Oefb0ky4CalMtcR2rLV9-26" target="Oefb0ky4CalMtcR2rLV9-7">
          <mxGeometry relative="1" as="geometry">
            <Array as="points">
              <mxPoint x="260" y="255" />
            </Array>
          </mxGeometry>
        </mxCell>
        <mxCell id="Oefb0ky4CalMtcR2rLV9-45" style="edgeStyle=orthogonalEdgeStyle;rounded=0;orthogonalLoop=1;jettySize=auto;html=1;exitX=0.25;exitY=0.75;exitDx=0;exitDy=0;exitPerimeter=0;" edge="1" parent="Rr48j6R8bM0mg8fOzwoo-1" source="Oefb0ky4CalMtcR2rLV9-7" target="Oefb0ky4CalMtcR2rLV9-12">
          <mxGeometry relative="1" as="geometry">
            <Array as="points">
              <mxPoint x="140" y="75" />
            </Array>
          </mxGeometry>
        </mxCell>
      </root>
    </mxGraphModel>
  </diagram>
</mxfile>
